<?xml version="1.0" encoding="UTF-8"?>
<svg width="166px" height="49px" viewBox="0 0 166 49" version="1.1" xmlns="http://www.w3.org/2000/svg" xmlns:xlink="http://www.w3.org/1999/xlink">
    <!-- Generator: Sketch 52.1 (67048) - http://www.bohemiancoding.com/sketch -->
    <title>Killington Logo 3</title>
    <desc>Created with Sketch.</desc>
    <defs>
        <polygon id="path-1" points="0 0.107336486 39.4786359 0.107336486 39.4786359 48.3378378 0 48.3378378"></polygon>
    </defs>
    <g id="KILLINGTON" stroke="none" stroke-width="1" fill="none" fill-rule="evenodd">
        <g id="KILLINGTON-WINTER---Home" transform="translate(-57.000000, -24.000000)">
            <g id="Header-Area" transform="translate(-10.000000, 0.000000)">
                <g id="Nav-3" transform="translate(10.000000, 0.000000)">
                    <g id="Killington-Logo-3" transform="translate(57.000000, 24.000000)">
                        <g id="Group-38">
                            <g id="Group-3" transform="translate(0.000000, 0.554627)">
                                <mask id="mask-2" fill="white">
                                    <use xlink:href="#path-1"></use>
                                </mask>
                                <g id="Clip-2"></g>
                                <path d="M3.88916175,4.00217432 L3.88916175,27.0811743 C3.88916175,40.1582149 17.3378072,43.8199716 19.7570422,44.3715527 C22.1723092,43.8636743 35.5892096,40.4389716 35.5892096,27.0811743 L35.5892096,4.00217432 L3.88916175,4.00217432 Z M19.7206677,48.3379041 L19.3767633,48.27235 C19.1836478,48.2346068 -0.000264541833,44.3887689 -0.000264541833,27.0811743 L-0.000264541833,0.107336486 L39.4786359,0.107336486 L39.4786359,27.0811743 C39.4786359,44.7529581 20.2616558,48.2452014 20.0685402,48.2789716 L19.7206677,48.3379041 Z" id="Fill-1" fill="#FFFFFF" mask="url(#mask-2)"></path>
                            </g>
                            <polygon id="Fill-4" fill="#8DC449" points="15.0476024 16.4243365 17.5693474 16.4243365 21.9018813 16.4243365 24.4335466 16.4243365 19.7458653 12.849323"></polygon>
                            <polygon id="Fill-6" fill="#009DD8" points="15.0476024 16.4243365 17.5693474 16.4243365 21.9018813 16.4243365 24.4335466 16.4243365 19.7458653 12.849323"></polygon>
                            <polygon id="Fill-8" fill="#FFFFFF" points="9.3614741 35.0977068 19.7341594 27.0643554 30.107506 35.0977068"></polygon>
                            <path d="M76.0291243,19.3685081 C77.046949,19.3685081 77.8584311,20.1776703 77.8584311,21.2000486 C77.8584311,22.2191162 77.046949,23.0315892 76.0291243,23.0315892 C75.0106382,23.0315892 74.2004789,22.2191162 74.2004789,21.2000486 C74.2004789,20.1776703 75.0106382,19.3685081 76.0291243,19.3685081 Z M75.4616821,25.3869 C73.2143992,28.9446973 71.0649968,32.1601568 71.0649968,33.4705757 C71.0649968,33.9665351 71.2204151,34.3340351 71.6648454,34.3340351 C73.7282717,34.3340351 77.2572598,29.3625216 78.3822239,27.7931973 L78.5892279,27.8713324 C77.7539371,29.0486568 76.4728932,30.9053595 74.9041602,32.5024946 C73.2871482,34.1506162 72.0841442,35.0134135 70.4102558,35.0134135 C69.0002478,35.0134135 68.2436582,34.1234676 68.2436582,32.6852514 C68.2436582,31.1152649 69.7574988,28.8135892 71.796455,25.3869 L75.4616821,25.3869 Z" id="Fill-10" fill="#FFFFFF"></path>
                            <path d="M87.8902542,16.4902878 C80.9387562,28.05495 78.2258797,31.8743014 78.2258797,33.7310041 C78.2258797,34.1236662 78.4877761,34.3342338 78.7754653,34.3342338 C80.3693299,34.3342338 84.0008279,30.3043149 85.5953538,27.7933959 L85.8056645,27.8973554 C85.1244693,28.9448959 81.1272422,35.0136122 77.5995769,35.0136122 C76.1359992,35.0136122 75.402557,34.1766392 75.402557,33.07745 C75.402557,30.77445 77.3899275,28.1059365 84.2104773,16.4902878 L87.8902542,16.4902878 Z" id="Fill-12" fill="#FFFFFF"></path>
                            <path d="M95.1412797,16.4902878 C88.1911044,28.05495 85.4921163,31.8743014 85.4921163,33.7310041 C85.4921163,34.1236662 85.7520287,34.3342338 86.0403793,34.3342338 C87.6342438,34.3342338 91.2677259,30.3043149 92.8609291,27.7933959 L93.0692558,27.8973554 C92.3900446,28.9448959 88.3921562,35.0136122 84.8658135,35.0136122 C83.4009131,35.0136122 82.669455,34.1766392 82.669455,33.07745 C82.669455,30.77445 84.6561641,28.1059365 91.4773753,16.4902878 L95.1412797,16.4902878 Z" id="Fill-14" fill="#FFFFFF"></path>
                            <path d="M97.8260486,19.3685081 C98.8465187,19.3685081 99.6566781,20.1776703 99.6566781,21.2000486 C99.6566781,22.2191162 98.8465187,23.0315892 97.8260486,23.0315892 C96.8069012,23.0315892 95.9967418,22.2191162 95.9967418,21.2000486 C95.9967418,20.1776703 96.8069012,19.3685081 97.8260486,19.3685081 Z M97.2612518,25.382927 C95.0152916,28.9413865 92.8625825,32.1601568 92.8625825,33.4705757 C92.8625825,33.9665351 93.0186622,34.3340351 93.4630924,34.3340351 C95.5265187,34.3340351 99.0555068,29.3625216 100.179148,27.7931973 L100.388136,27.8713324 C99.5515227,29.0486568 98.2718016,30.9053595 96.7043912,32.5024946 C95.0840725,34.1506162 93.8804072,35.0134135 92.2098255,35.0134135 C90.7978335,35.0134135 90.0392598,34.1234676 90.0392598,32.6852514 C90.0392598,31.1152649 91.5564072,28.8096162 93.5940406,25.382927 L97.2612518,25.382927 Z" id="Fill-16" fill="#FFFFFF"></path>
                            <path d="M95.2135657,35.0133473 L100.827805,25.3828608 L104.431526,25.3828608 C103.176936,27.1362662 102.062554,28.813523 100.913781,30.618577 L100.963382,30.6702257 C102.768219,28.3943743 105.537311,24.9683473 108.098076,24.9683473 C109.404912,24.9683473 110.423398,25.6477257 110.423398,27.0342932 C110.423398,29.3108068 106.975757,32.0839419 106.975757,33.681077 C106.975757,34.0201041 107.157629,34.3339689 107.574283,34.3339689 C108.332857,34.3339689 109.353327,33.5228203 110.397606,32.4752797 C112.017924,30.8543068 113.664036,28.6572527 114.316793,27.8196176 L114.552896,27.9513878 C113.377008,29.5193878 111.992793,31.2992797 110.633048,32.6851851 C109.221717,34.1234014 107.888426,35.0133473 106.504211,35.0133473 C104.961932,35.0133473 104.153096,33.9942797 104.153096,32.529577 C104.153096,29.9915095 107.44598,28.0281986 107.44598,26.5906446 C107.44598,26.1443473 107.209215,25.8569689 106.739653,25.8569689 C104.910347,25.8569689 99.6248008,32.7891446 98.6307849,35.0133473 L95.2135657,35.0133473 Z" id="Fill-18" fill="#FFFFFF"></path>
                            <path d="M115.417221,33.9664027 C117.638711,33.9664027 120.590998,28.9968757 120.590998,26.6144162 C120.590998,25.7781054 120.094982,25.2814838 119.415109,25.2814838 C117.221396,25.2814838 114.476113,29.9914432 114.476113,32.6573081 C114.476113,33.314173 114.632193,33.9664027 115.417221,33.9664027 M118.866846,24.9682811 C119.988504,24.9682811 120.851571,25.2543351 121.42695,26.5111189 L122.001667,25.3854432 L125.534623,25.3854432 C123.731771,28.4717811 122.080368,31.1939297 120.303308,34.2041189 C123.518153,33.1036054 126.209205,30.3569568 128.300408,27.7930649 L128.483603,27.9764838 C126.365284,30.6185108 123.309165,33.6015514 120.068527,34.5689703 C117.40393,39.9331459 112.648129,43.1764162 107.996822,43.1764162 C105.121253,43.1764162 102.168304,42.1302 102.168304,39.3557405 C102.168304,37.552673 103.553842,36.1131324 106.977014,36.1131324 L108.622464,36.1131324 L108.432655,36.4276595 L108.073539,36.4276595 C106.402296,36.4276595 105.304448,37.3944162 105.304448,39.4352 C105.304448,41.3190514 106.479014,42.8618892 108.360567,42.8618892 C110.476902,42.8618892 112.437818,41.1098081 114.136177,38.6253757 L118.133404,32.7904027 L118.083802,32.7374297 C116.880798,34.1504838 115.208233,35.0132811 113.536328,35.0132811 C111.994711,35.0132811 111.080057,33.8644297 111.080057,32.2672946 C111.080057,28.6571865 115.12887,24.9682811 118.866846,24.9682811" id="Fill-20" fill="#FFFFFF"></path>
                            <path d="M126.576918,25.9096108 L126.821619,25.3918 L128.990201,25.3918 L131.150846,21.6969351 L134.718854,21.6896514 L132.492073,25.3918 L136.071324,25.3918 L135.802153,25.9096108 L132.195125,25.9096108 C131.228225,27.6093811 128.354639,31.716773 128.354639,33.4708405 C128.354639,34.0707595 128.719045,34.3343 129.294424,34.3343 C132.0655,34.3343 135.802153,29.2839892 137.107006,27.7404892 L137.317316,27.8444486 C134.940408,30.6705568 132.118408,35.0136784 127.910209,35.0136784 C126.315683,35.0136784 125.530655,34.0707595 125.530655,32.7106784 C125.530655,31.3505973 126.211189,30.2527324 128.69193,25.9096108 L126.576918,25.9096108 Z" id="Fill-22" fill="#FFFFFF"></path>
                            <path d="M137.057801,33.3666824 C137.057801,34.1765068 137.450645,34.700277 138.102741,34.700277 C140.611259,34.700277 143.486167,29.0738851 143.486167,26.6146149 C143.486167,25.8041284 143.093323,25.2816824 142.440566,25.2816824 C139.931386,25.2816824 137.057801,30.9054257 137.057801,33.3666824 Z M151.245841,27.9760203 C150.960135,28.2640608 149.966781,29.4672095 148.55545,29.4672095 C147.640797,29.4672095 146.935131,28.9970743 146.359092,28.2640608 L146.306183,28.2640608 C146.306183,31.9271419 142.595323,35.0134797 138.729044,35.0134797 C136.405705,35.0134797 134.233817,34.1235338 134.233817,31.4556824 C134.233817,27.4509257 138.363315,24.9678176 142.021928,24.9678176 C146.517817,24.9678176 145.916645,29.1540068 148.55545,29.1540068 C149.337171,29.1540068 150.253809,28.6818851 151.038837,27.7681014 L151.245841,27.9760203 Z" id="Fill-24" fill="#FFFFFF"></path>
                            <path d="M146.029406,35.0133473 L151.646952,25.3855095 L155.250673,25.3855095 C153.996745,27.1382527 152.870458,28.813523 151.71904,30.618577 L151.771287,30.6702257 C153.575462,28.3943743 156.343231,24.9683473 158.906641,24.9683473 C160.212155,24.9683473 161.230641,25.6477257 161.230641,27.0342932 C161.230641,29.3108068 157.782339,32.0839419 157.782339,33.681077 C157.782339,34.0201041 157.965534,34.3339689 158.38351,34.3339689 C159.1401,34.3339689 160.159247,33.5228203 161.204187,32.4752797 C162.825829,30.8543068 164.471279,28.6572527 165.125359,27.8196176 L165.360139,27.9513878 C164.182928,29.5193878 162.800036,31.2992797 161.440952,32.6851851 C160.029622,34.1234014 158.696992,35.0133473 157.313438,35.0133473 C155.769175,35.0133473 154.960339,33.9942797 154.960339,32.529577 C154.960339,29.9915095 158.251239,28.0281986 158.251239,26.5906446 C158.251239,26.1443473 158.016458,25.8569689 157.547558,25.8569689 C155.718912,25.8569689 150.414187,32.7891446 149.41951,35.0133473 L146.029406,35.0133473 Z" id="Fill-26" fill="#FFFFFF"></path>
                            <path d="M70.8577944,20.6688622 C72.6738741,18.5598757 73.5852207,15.9906865 75.3523602,15.2782 L75.5514279,14.9497676 C73.1064,15.0815378 70.0615235,16.2661459 67.5959936,19.6173486 C64.6939697,23.5472811 63.1464,24.2948622 60.1332685,24.2948622 C59.9123761,24.2948622 59.8290454,24.3498216 59.8290454,24.4604027 C59.8290454,24.5987946 60.0228223,24.6266054 60.2437147,24.6266054 C61.2946072,24.6266054 61.9850614,25.0695919 61.9850614,26.0926324 C61.9850614,27.7261865 59.5525992,30.4377405 59.5525992,32.5414297 C59.5525992,34.2570919 60.6306072,35.1424027 62.3448382,35.1424027 C64.5835235,35.1424027 66.186647,34.2021324 67.9002167,32.5136189 C69.3102247,31.1297 70.6091251,29.4418486 71.7698024,27.8089568 L71.5217944,27.6156054 C70.5813482,28.8876189 69.3651171,30.521173 68.1211092,31.8216595 C66.6284319,33.3989297 65.2468622,34.3120514 64.224408,34.3120514 C63.6166231,34.3120514 63.3117386,33.9246865 63.3117386,33.3161595 C63.3117386,32.1818757 64.6390773,30.2165784 64.6390773,28.6671189 C64.6390773,26.5356189 63.0630693,25.4847676 61.3772765,24.6266054 L61.3772765,24.5709838 C66.186647,24.1558081 68.4531092,23.4638486 70.8577944,20.6688622" id="Fill-28" fill="#FFFFFF"></path>
                            <path d="M66.8806064,14.9544689 C62.4303514,14.9544689 45.4560247,15.4941311 45.4560247,22.9381581 C45.4560247,25.1524284 46.9764789,26.5085365 49.1324948,26.5085365 C49.7422637,26.5085365 50.3606303,26.3774284 50.8910367,26.23705 C50.8910367,26.23705 50.9803195,26.0887257 51.0120645,26.0364149 C49.6027179,26.0364149 48.2753793,24.5432392 48.2753793,23.1043608 C48.2753793,19.5346446 52.894941,15.3418338 66.7979371,15.2862122 L66.7979371,15.3418338 C63.5639131,15.9232122 59.0832359,18.1229149 56.1527737,23.2149419 C52.3116263,29.8570905 50.2653952,34.7272932 45.9533633,34.8107257 C45.9090526,34.81205 45.7496661,34.8153608 45.7060167,34.8146986 C45.6445108,34.9285905 45.5691163,35.0404959 45.49769,35.159023 C55.4206542,35.159023 58.1156741,25.8993473 61.9581442,20.116023 C64.0235546,17.0012122 66.3105187,15.5656446 67.4850845,15.2795905 L67.6748932,14.9663878 C67.4592916,14.9571176 67.0704151,14.9544689 66.8806064,14.9544689" id="Fill-30" fill="#FFFFFF"></path>
                            <polygon id="Fill-32" fill="#009DD8" points="21.9052542 16.4194365 30.1106805 16.4194365 30.1106805 10.0342068 19.7366725 10.0342068 9.36398725 10.0342068 9.36398725 16.4194365 17.572059 16.4194365"></polygon>
                            <polygon id="Fill-34" fill="#8DC449" style="mix-blend-mode: multiply;" points="17.5728526 16.421423 21.9060478 16.421423 24.4377131 16.421423 19.7500319 12.8464095 15.0511076 16.421423"></polygon>
                            <polygon id="Fill-36" fill="#8DC449" points="21.9059155 16.421423 17.5727203 16.421423 15.0516367 16.421423 9.36464861 20.7486527 9.36464861 27.8966932 19.7373339 19.8626797 30.1113418 27.8966932 30.1113418 20.7486527 24.4375809 16.421423"></polygon>
                        </g>
                    </g>
                </g>
            </g>
        </g>
    </g>
</svg>